<svg xmlns="http://www.w3.org/2000/svg" width="416" height="273" viewBox="0 0 416 273"><defs><clipPath id="kjiza"><path fill="#fff" d="M173 169V99h87v70zm3.79-26.884v23.71h7.972v-23.71c0-17.387 14.35-31.613 31.888-31.613 17.538 0 31.887 14.226 31.887 31.613v23.71h7.972v-23.71c0-21.734-17.937-39.516-39.86-39.516-21.922 0-39.859 17.782-39.859 39.516z"/></clipPath><clipPath id="kjizb"><path fill="#fff" d="M163.04 181.82c0-8.837 7.163-16 16-16h75.209c8.836 0 16 7.163 16 16v75.209c0 8.836-7.164 16-16 16H179.04c-8.837 0-16-7.164-16-16z"/></clipPath></defs><g><g><g><path fill="#ffda7b" d="M191.592 43.555c18.05 3.139 31.391 18.05 32.569 36.1 12.164 7.062 19.619 20.011 19.619 34.53 0 18.296-12.691 33.772-29.704 38.059l-.984.717h-2.543c-1.96.304-3.966.462-6.008.462H173.15v-.462H71.13v.07H39.739C18.157 153.031.5 135.374.5 113.792c0-14.126 7.848-27.075 20.012-34.138C15.41 50.227 47.586 11.38 90.357 27.468 100.167 10.202 118.216 0 137.835 0c25.898 0 48.656 18.442 53.757 43.555z"/></g><g><path fill="#f99042" d="M353.429 87.543c21.467 3.733 37.335 21.467 38.735 42.935 14.467 8.401 23.335 23.802 23.335 41.069 0 21.762-15.096 40.169-35.332 45.268l-1.17.852h-3.024c-2.33.361-4.716.549-7.144.549h-37.335v-.549h-121.34v.083H172.82c-25.668 0-46.669-21.002-46.669-46.67 0-16.8 9.334-32.201 23.801-40.602-6.067-35.002 32.202-81.204 83.071-62.07 11.668-20.534 33.135-32.668 56.47-32.668 30.802 0 57.87 21.934 63.937 51.803z"/></g><g><g><g><g><path fill="#818181" d="M216.65 102.6c21.922 0 39.86 17.782 39.86 39.516v23.71h-7.973v-23.709c0-17.388-14.35-31.614-31.887-31.614-17.539 0-31.888 14.226-31.888 31.613v23.71h-7.972v-23.71c0-21.734 17.937-39.516 39.86-39.516z"/><path fill="none" stroke="#242424" stroke-miterlimit="20" stroke-width="6" d="M216.65 102.6c21.922 0 39.86 17.782 39.86 39.516v23.71h-7.973v0-12.089 0-11.62c0-17.388-14.35-31.614-31.887-31.614-17.539 0-31.888 14.226-31.888 31.613v23.71h-7.972v0-23.71c0-21.734 17.937-39.516 39.86-39.516z" clip-path="url(&quot;#kjiza&quot;)"/></g><g><path fill="#818181" d="M163.04 181.82c0-8.837 7.163-16 16-16h75.209c8.836 0 16 7.163 16 16v75.209c0 8.836-7.164 16-16 16H179.04c-8.837 0-16-7.164-16-16z"/><path fill="none" stroke="#242424" stroke-miterlimit="20" stroke-width="6" d="M163.04 181.82c0-8.837 7.163-16 16-16h75.209c8.836 0 16 7.163 16 16v75.209c0 8.836-7.164 16-16 16H179.04c-8.837 0-16-7.164-16-16z" clip-path="url(&quot;#kjizb&quot;)"/></g></g><g opacity=".5"><path fill="#242424" d="M212.883 225.13c-5.162-1.721-8.603-6.453-8.603-12.045 0-7.313 5.592-12.905 12.905-12.905 7.312 0 12.904 5.592 12.904 12.905 0 5.592-3.44 10.324-8.603 12.044v13.765h-8.603zm0-12.045c0 2.58 1.72 4.301 4.302 4.301 2.58 0 4.301-1.72 4.301-4.301 0-2.581-1.72-4.302-4.301-4.302-2.581 0-4.302 1.72-4.302 4.302z"/></g></g></g></g></g></svg>