<svg width="15" height="15" viewBox="0 0 15 15" fill="none" xmlns="http://www.w3.org/2000/svg">
<path d="M0.777344 7.88845C0.777344 3.9611 3.9611 0.777344 7.88845 0.777344V0.777344C11.8158 0.777344 14.9996 3.9611 14.9996 7.88845V7.88845C14.9996 11.8158 11.8158 14.9996 7.88845 14.9996V14.9996C3.9611 14.9996 0.777344 11.8158 0.777344 7.88845V7.88845Z" fill="#808080"/>
<path d="M7.29774 5.3534V8.48098H10.4253V7.88838H7.89034V5.3534H7.29774Z" fill="white"/>
<path fill-rule="evenodd" clip-rule="evenodd" d="M12.0385 7.88838C12.0385 10.1793 10.1813 12.0365 7.89034 12.0365C5.59938 12.0365 3.74219 10.1793 3.74219 7.88838C3.74219 5.59742 5.59938 3.74023 7.89034 3.74023C10.1813 3.74023 12.0385 5.59742 12.0385 7.88838ZM11.1167 7.88838C11.1167 9.67024 9.67219 11.1147 7.89034 11.1147C6.10848 11.1147 4.664 9.67024 4.664 7.88838C4.664 6.10653 6.10848 4.66205 7.89034 4.66205C9.67219 4.66205 11.1167 6.10653 11.1167 7.88838Z" fill="white"/>
</svg>
