<svg xmlns="http://www.w3.org/2000/svg" width="132" height="129" viewBox="0 0 132 129"><defs><linearGradient id="6cfja" x1="74.35" x2="49.67" y1="41.67" y2="52.01" gradientUnits="userSpaceOnUse"><stop offset="0" stop-color="#febbba"/><stop offset="1" stop-color="#ff928e"/></linearGradient></defs><g><g><g/><g><g opacity=".2"><path fill="#fff" d="M113.279 109.704c-3.329 3.437-6.313 5.46-8.591 6.989-22.254 14.884-47.69 10.593-55.553 9.128-12.69-2.365-23.398-4.032-32.602-12.361C-4.38 94.53-3.36 55.048 12.618 30.594 14.513 27.693 30.468 4.004 55.96.665c.623-.083 1.088-.13 1.494-.17 3.943-.417 28.383-2.625 48.309 14.097 2.854 2.393 7.442 6.712 11.699 13.3 15.563 24.08 15.614 61.372-4.183 81.812z"/></g><g><g><g><path fill="#dda000" d="M.042 5.58c-.268-.785.807-1.432 1.554-.937C9.19 9.645 27.76 25.05 26.52 55.33c-1.558 37.989 8.822 50.761 20.876 57.981 0 0-15.813-2.383-26.894-15.29C-6.7 66.338 4.815 19.55.042 5.58z"/></g></g></g><g><g><g><path fill="#bb8700" d="M35.177 95.272c-.489 1.243-2.08 1.584-3.043.66-5.313-5.09-19.027-20.851-16.97-46.193 1.738-21.401.65-33.167-.217-38.479-.184-1.122 1.171-1.824 1.983-1.03 8.96 8.763 35.88 40.017 18.247 85.042z"/></g><g><path fill="#ffb900" d="M33.374 95.234a.525.525 0 0 1-.765-.254c-.116-.305-11.663-30.802-10.588-60.666a.524.524 0 0 1 .54-.504c.285.01.511.254.502.54-1.06 29.648 10.408 59.95 10.523 60.255a.526.526 0 0 1-.212.628z"/></g></g></g><g><g><g><g><path fill="#ffdb7c" d="M29.063.508c-3.357.291-5.935 3.109-5.944 6.486-.06 20.653-.157 91.892 1.19 117.109a5.063 5.063 0 0 0 4.999 4.799c13.207.144 51.2.402 72.767-.979a8.525 8.525 0 0 0 7.982-8.523c-.028-21.678-.373-82.64-3.334-110.503a6.952 6.952 0 0 0-6.377-6.204C85.94 1.566 47.688-1.113 29.063.508z"/></g><g><path fill="#fff" d="M28.425 12.403c-.258 17.669-.996 76.44.29 98.133.19 3.169 2.648 5.672 5.682 5.778 12.497.435 44.55 1.28 62.816-.734 3.288-.36 5.801-3.22 5.889-6.675.456-18.03 1.692-72.768.438-94.216-.199-3.423-2.809-6.153-6.083-6.375-13.534-.914-48.285-3.02-63.816-1.723-2.915.245-5.174 2.754-5.216 5.812z"/></g><g><path fill="#ffb900" d="M58.626 3.583c.009.49.4.882.885.896 2.407.074 9.181.281 12.206.388a.917.917 0 0 0 .927-1.109c-.01-.018-.088-.767-.853-.822-2.047-.143-8.227-.527-12.312-.291-.835.05-.881 1.007-.853.938z"/></g></g></g><g><g><g><path fill="#f99042" d="M44.35 65.765s17.228-4.328 35.429-1.718c5.123.734 9.656 3.718 12.423 8.102 4.98 7.895 12.021 21.96 10.532 36.632l-7.816 1.935s-5.4-17.41-11.483-24.496c0 0-7.198 16.44-6.834 25.466.01.254.028.504.051.748.826 8.833-34.562 1.65-34.562 1.65z"/></g><g><path fill="#ffccb4" d="M62.977 51.023l-3.666 11.7c-.341 1.091 0 2.255.848 2.911 1.965 1.515 5.843 3.926 10.583 3.857.867-.014 1.596-.753 1.656-1.663l1.305-19.558z"/></g><g><g><path fill="#ffccb4" d="M77.171 38.197s1.425 9.216.526 13.622c-.9 4.403-.7 7.465-5.944 7.022-5.238-.443-8.803-4.056-9.956-8.98 0 0-1.835-7.608-.313-10.121 1.521-2.522 15.687-1.543 15.687-1.543z"/></g><g><path fill="#8b6500" d="M64.322 47.2l.632.166s-1.204-6.052 1.337-6.389c2.541-.337 12.11.199 14.918-2.517 2.707-2.615 2.075-7.082-.152-8.87a.344.344 0 0 0-.47.047l-.314.342a.35.35 0 0 1-.609-.231c-.009-.3-.369-.462-.585-.254-.854.808-2.892 1.949-7.457 1.607-6.484-.485-11.229.947-12.45 5.202a.351.351 0 0 1-.6.138c-.383-.397-1.08-.72-2.274-.157-2.07.984-2.351 4.874.572 8.906.139.19.065.467-.161.54-.789.264-2.07 1.045.17 3.128 2.292 2.13 3.91 2.388 4.547 2.393.17 0 .318-.116.35-.287l.762-3.852a.354.354 0 0 1 .433-.273z"/></g><g><path fill="url(#6cfja)" d="M64.28 48.035s.014-5.645-2.74-4.786c-2.752.86-.327 6.24 1.523 6.938z"/></g></g><g><g><path fill="#f99042" d="M44.454 100.965c-.761-5.4 4.818-13.332 7.124-16.344a5.001 5.001 0 0 0 1.038-2.997c.069-7.645-3.136-12.556-8.273-15.854 0 0-18.634 21.748-13.89 38.474a14.057 14.057 0 0 0 2.31 4.689c.753-6.305 8.025-7.677 11.69-7.968z"/></g><g><path fill="#ffccb4" d="M44.8 98.877l-.71-.083c.604-5.294 5.238-11.83 7.203-14.394l.567.434c-1.927 2.518-6.474 8.925-7.06 14.043z"/></g><g><path fill="#ffccb4" d="M44.603 101.708a6.521 6.521 0 0 1-.148-.748c-3.666.291-10.938 1.668-11.685 7.968 8.314 11.017 31.237 7.045 31.237 7.045v-4.287s-17.601-3.275-19.404-9.978z"/></g></g><g><path fill="#ffccb4" d="M61.8 114.783s3.385-8 9.347-5.165c5.963 2.837 5.497 4.694 5.497 4.694z"/></g><g><path fill="#bb8700" d="M61.043 116.445a1.13 1.13 0 0 0 1.167 1.044l30.9-1.08c.48-.02.9-.338 1.043-.795l.899-2.873a1.13 1.13 0 0 0-1.02-1.47l-11.27-.6a1.353 1.353 0 0 0-.304.023l-20.53 4.555a1.142 1.142 0 0 0-.885 1.196z"/></g><g><path fill="#694c00" d="M81.75 115.318l.853-3.968 11.575.55-.761 3.293z"/></g><g><path fill="#bb8700" d="M75.819 72.592c-.655 5.363-3.602 27.148-4.446 33.375a1.429 1.429 0 0 0 1.458 1.621l49.996-1.432a1.431 1.431 0 0 0 1.356-1.122l7.779-35.084a1.426 1.426 0 0 0-1.48-1.737L77.156 71.34a1.426 1.426 0 0 0-1.337 1.252z"/></g><g><path fill="#8b6500" d="M95.917 94.599l-7.387 21.008 17.182.365 1.43-21.248a1.649 1.649 0 0 0-1.753-1.76l-8.024.535c-.66.047-1.226.48-1.448 1.1z"/></g><g><path fill="#8b6500" d="M81.565 115.9a.894.894 0 0 0 .849 1.173h26.907a.896.896 0 0 0 .894-.896v-1.155a.892.892 0 0 0-.931-.891l-26.907 1.155a.9.9 0 0 0-.812.614z"/></g></g><g><path fill="#fef5dd" d="M75.065 94.76l-.355-.045 2.458-19.406a2.522 2.522 0 0 1 2.347-2.204l46.081-2.785.023.356-46.08 2.785a2.167 2.167 0 0 0-2.016 1.89z"/></g><g><path fill="#fef5dd" d="M74.017 100.235l-.529 4.203.357.045.529-4.203z"/></g><g><g><g><g><path fill="#694c00" d="M72.262 53.984c-5.552.42-8.78-5.33-8.812-5.39l.374-.204c.032.055 3.13 5.57 8.406 5.169z"/></g></g><g><path fill="#694c00" d="M74.53 53.766a.597.597 0 0 1-.594.596h-1.591a.597.597 0 0 1 0-1.192h1.59c.328 0 .596.268.596.596z"/></g></g><g><g><path fill="#694c00" d="M63.842 42.22s1.992-10.236 7.862-11.206c0 0-1.665-.84-3.394.07-1.734.91-6.114 5.893-5.935 11.386 1.19.434 1.467-.25 1.467-.25z"/></g><g><path fill="#694c00" d="M62.82 41.737c-3.052.62-2.674 4.486-2.674 4.486-.221 2.804.6 4.199 1.647 4.86a2.4 2.4 0 0 0 2.37.11 2.42 2.42 0 0 0 1.319-1.977c.055-.762.12-1.487.175-1.746.138-.628.217-6.356-2.836-5.733z"/></g></g><g><path fill="#8b6500" d="M63.095 42.711a1.385 1.385 0 0 0-1.513.818c-1.826 4.23.415 6.984 1.517 7.044 1.158.06 1.135-5.525.89-6.957-.106-.6-.489-.831-.894-.905z"/></g></g></g></g><g><g><path fill="#fff" d="M110.528 47.612c10.696 0 19.367-8.686 19.367-19.4 0-10.716-8.67-19.402-19.367-19.402-10.697 0-19.368 8.686-19.368 19.401s8.671 19.401 19.368 19.401z"/></g><g><path fill="#f99042" d="M110.535 44.947c9.143 0 16.555-7.425 16.555-16.584 0-9.158-7.412-16.583-16.555-16.583S93.98 19.205 93.98 28.363c0 9.16 7.412 16.584 16.555 16.584z"/></g><g><path fill="#fff" d="M109.827 6.426c1.162.499 4.593 2.12 5.247 2.43a.09.09 0 0 1 .028.143l-4.1 4.495a.795.795 0 0 1-.677.254l-1.762-.204c-.064-.009-.101-.078-.064-.133l2.296-3.78a.088.088 0 0 0-.046-.128l-3.33-1.298a.332.332 0 0 1-.027-.606l2.356-1.164a.082.082 0 0 1 .079-.009z"/></g><g><g><path fill="#fff" d="M104.795 31.976h-4.386v-1.137l1.453-2.06c.401-.568.673-.989.82-1.266.148-.272.259-.536.333-.79.069-.254.106-.512.106-.78 0-.314-.07-.55-.208-.707a.695.695 0 0 0-.544-.236c-.198 0-.383.051-.553.157-.171.107-.379.291-.628.569l-.848-.897c.392-.443.756-.748 1.093-.914a2.43 2.43 0 0 1 1.093-.245c.66 0 1.176.194 1.545.582.369.388.558.929.558 1.621 0 .315-.033.61-.102.892a4.44 4.44 0 0 1-.304.845 7.405 7.405 0 0 1-.512.878c-.203.305-.733 1.002-1.591 2.093v.046h2.68v1.349z"/></g><g><path fill="#fff" d="M109.604 30.252v1.718h-1.434v-1.718h-2.67v-1.238l2.472-5.234h1.628v5.21h.83v1.262zm-1.43-2.989l.028-.762.042-.73h-.046c-.13.406-.272.776-.425 1.104l-.982 2.111h1.384z"/></g><g><path fill="#fff" d="M115.172 23.78l-3.048 8.19h-1.434l3.048-8.19z"/></g><g><path fill="#fff" d="M116.243 31.97l2.291-6.831h-2.854V23.79h4.385v1.03l-2.255 7.15z"/></g></g></g></g></g></g></svg>