<svg width="13" height="13" viewBox="0 0 13 13" fill="none" xmlns="http://www.w3.org/2000/svg">
<path d="M4.51953 0.753906C3.32606 0.753906 2.18146 1.22799 1.33755 2.0719C0.493637 2.91581 0.0195312 4.06043 0.0195312 5.25391C0.0195312 6.44738 0.493637 7.59194 1.33755 8.43585C2.18146 9.27977 3.32606 9.75391 4.51953 9.75391C5.71301 9.75391 6.8576 9.27977 7.70151 8.43585C8.54543 7.59194 9.01953 6.44738 9.01953 5.25391C9.01953 4.06043 8.54543 2.91581 7.70151 2.0719C6.8576 1.22799 5.71301 0.753906 4.51953 0.753906ZM4.51953 8.75391C3.59127 8.75391 2.70104 8.38514 2.04466 7.72876C1.38828 7.07238 1.01953 6.18216 1.01953 5.25391C1.01953 4.32565 1.38828 3.43537 2.04466 2.77899C2.70104 2.12261 3.59127 1.75391 4.51953 1.75391C5.44779 1.75391 6.33803 2.12261 6.9944 2.77899C7.65078 3.43537 8.01953 4.32565 8.01953 5.25391C8.01953 6.18216 7.65078 7.07238 6.9944 7.72876C6.33803 8.38514 5.44779 8.75391 4.51953 8.75391Z" fill="#808080"/>
<path d="M9.14851 8.42766L8.44141 9.13477L11.4417 12.135L12.1488 11.4279L9.14851 8.42766Z" fill="#808080"/>
</svg>
