<svg width="65" height="72" viewBox="0 0 65 72" fill="none" xmlns="http://www.w3.org/2000/svg">
<rect opacity="0.2" x="29.4648" y="8.94751" width="32" height="41" transform="rotate(30 29.4648 8.94751)" fill="#7D550D"/>
<rect x="30.366" y="1.38531" width="38" height="58" rx="1" transform="rotate(30 30.366 1.38531)" stroke="#7D550D" stroke-width="2"/>
<path d="M24.094 35.112C23.2747 36.8523 22.6929 38.8229 23.331 40.7537C23.5242 41.342 23.8125 41.769 24.2409 42.0163C24.2432 42.0177 24.2521 42.0229 24.2617 42.0278C24.2714 42.0328 24.2901 42.042 24.3144 42.0491C24.3208 42.051 24.3274 42.0526 24.3341 42.0541C25.0556 42.4079 25.8494 42.1182 26.3834 41.8734C27.8215 41.221 29.1811 40.4393 30.4491 39.5367C30.2098 40.5134 30.3846 41.424 31.0214 41.9666C31.5299 42.4001 32.1352 42.473 32.7015 42.393C33.2628 42.3137 33.8098 42.0818 34.2391 41.8751L34.2396 41.8749L35.7605 41.139C35.6292 41.6593 35.7033 42.1562 36.0323 42.573C36.5601 43.2447 37.4077 43.2633 38.0265 43.2769L24.094 35.112ZM24.094 35.112C23.3592 35.3358 22.625 35.5465 21.8951 35.7559C21.7762 35.79 21.6575 35.824 21.5389 35.8581L21.3063 35.925L21.2319 35.6946L21.0614 35.166L20.9819 34.9198L21.2307 34.8488C22.4084 34.5126 23.5926 34.1709 24.7663 33.7946C26.1186 31.3163 27.6612 28.918 29.3523 26.6612L29.3524 26.6611C30.4005 25.2642 31.592 23.7939 33.1315 22.7093L33.1323 22.7087C33.6168 22.3701 34.4006 21.8726 35.323 21.8073C36.2884 21.7367 37.2582 22.2077 37.6584 23.0013C38.1039 23.8803 37.7781 24.8559 37.5368 25.4429L37.5366 25.4434C36.073 28.9823 33.0206 31.2235 30.7353 32.4704C29.0701 33.3813 27.2964 34.0771 25.5063 34.6642C24.5213 36.5189 23.7109 38.5563 24.3331 40.4395C24.4664 40.8402 24.6213 41.0344 24.7755 41.1153L24.7763 41.1158C24.9035 41.1831 25.0682 41.1959 25.2771 41.1557C25.4859 41.1155 25.7112 41.0278 25.9398 40.9263C28.0072 39.9937 29.8947 38.7841 31.5725 37.3172C31.982 36.7871 32.4722 36.3233 33.0271 35.9419L33.2104 35.816L33.3569 35.9833L33.7259 36.4052L33.8772 36.578L33.7178 36.7433C33.2796 37.1978 32.8236 37.6283 32.3595 38.0401C32.0148 38.5039 31.7431 39.02 31.5635 39.5643C31.5163 39.7102 31.4277 40.0233 31.4212 40.3549C31.4145 40.691 31.492 40.9945 31.719 41.188C31.8868 41.3306 32.1194 41.4031 32.456 41.3722C32.7986 41.3409 33.2332 41.2031 33.7733 40.9403L33.7736 40.9401L38.2992 38.7457L38.5899 39.1425L37.5374 40.2546C37.5372 40.2548 37.5371 40.2549 37.5369 40.2551C37.3565 40.4467 37.0812 40.7682 36.9111 41.1091C36.7359 41.4603 36.7129 41.7424 36.87 41.945C36.9642 42.0634 37.1031 42.1368 37.31 42.1801C37.5233 42.2247 37.7784 42.2316 38.0836 42.2373L38.0856 42.2373C38.1046 42.2378 38.1236 42.2383 38.1428 42.2388C38.7096 42.2533 39.3911 42.2707 39.9402 42.6937L40.1703 42.8708L40.378 43.0307L40.2084 43.2306L40.0254 43.4464C40.0253 43.4465 40.0252 43.4466 40.0251 43.4467C39.9765 43.5045 39.7426 43.7926 39.5899 44.1191C39.513 44.2833 39.4656 44.4389 39.4612 44.5692C39.4572 44.6911 39.4899 44.7787 39.5658 44.8469L39.5678 44.8487C39.6379 44.9131 39.7265 44.9468 39.8808 44.9467C40.046 44.9465 40.2549 44.908 40.5452 44.8472L40.5457 44.847C40.5609 44.8439 40.5761 44.8407 40.5914 44.8376C41.0198 44.7485 41.5285 44.6427 42.0373 44.7952L42.275 44.8664L42.2055 45.1047L42.0522 45.6298L41.9818 45.8711L41.7408 45.7994C41.4972 45.7267 41.1883 45.7849 40.7755 45.8719L40.7751 45.872C40.7604 45.875 40.7455 45.8782 40.7305 45.8813C40.1978 45.9931 39.446 46.1508 38.8528 45.6134L38.8525 45.6132C38.4544 45.2516 38.3482 44.786 38.4153 44.3245C38.4648 43.9842 38.6078 43.6422 38.7958 43.3265C38.5864 43.2921 38.3442 43.2844 38.0673 43.2778L24.094 35.112ZM30.2161 27.2982L30.2164 27.2977C31.2284 25.9389 32.3533 24.5711 33.7619 23.5749C34.187 23.2749 34.7877 22.9093 35.4221 22.8616C35.7056 22.8434 36.0455 22.9039 36.3185 23.0615C36.4914 23.1614 36.6347 23.2974 36.7205 23.4675C36.8883 23.8037 36.8729 24.2754 36.5598 25.0377C35.2172 28.2779 32.3844 30.3617 30.2192 31.5501L30.2192 31.5502C28.9674 32.2375 27.6426 32.7963 26.2802 33.2848C27.4686 31.2173 28.7884 29.2053 30.2161 27.2982Z" fill="#7D550D" stroke="#7D550D" stroke-width="0.5"/>
<rect x="41.8555" y="11.4834" width="9" height="2" rx="1" transform="rotate(30 41.8555 11.4834)" fill="#7D550D"/>
<circle cx="20.8219" cy="55.9186" r="2" transform="rotate(30 20.8219 55.9186)" fill="#7D550D"/>
</svg>
